<svg width="50px" height="50px" xmlns="http://www.w3.org/2000/svg" xmlns:xlink="http://www.w3.org/1999/xlink" version="1.1" x="0px" y="0px" viewBox="0 0 100 125" enable-background="new 0 0 100 100" xml:space="preserve"><g><g><path fill="#000000" d="M94.1,47.491c1.2,1.473,1.2,3.6,0,5.127l-5.455,6.818c-1.418,1.745-3.982,2.018-5.727,0.6    c-1.745-1.418-2.073-3.982-0.655-5.727l3.436-4.255L82.264,45.8c-1.418-1.8-1.091-4.364,0.655-5.782s4.309-1.145,5.727,0.655    L94.1,47.491z"/><path fill="#000000" d="M49.973,37.836c2.291,0,4.091,1.8,4.091,4.091v2.182c0,2.236-1.8,4.091-4.091,4.091    c-2.236,0-4.091-1.855-4.091-4.091v-2.182C45.882,39.636,47.736,37.836,49.973,37.836z"/><path fill="#000000" d="M61.209,43.127c0-6-4.855-10.8-10.8-10.855h-0.764c-5.945,0.055-10.8,4.855-10.8,10.855v13.8    c0,6,4.855,10.8,10.8,10.8h0.764c5.945,0,10.8-4.8,10.8-10.8V43.127z M49.645,75.909c-10.473,0-18.982-8.455-18.982-18.982v-13.8    c0-10.527,8.509-18.982,18.982-19.036h0.764c10.473,0.055,18.982,8.509,18.982,19.036v13.8c0,10.527-8.509,18.982-18.982,18.982    H49.645z"/><path fill="#000000" d="M17.736,54.309c1.418,1.745,1.145,4.309-0.6,5.727c-1.8,1.418-4.364,1.145-5.782-0.6L5.9,52.618    c-1.2-1.527-1.2-3.655,0-5.127l5.455-6.818c1.418-1.8,3.982-2.073,5.782-0.655c1.745,1.418,2.018,3.982,0.6,5.782l-3.382,4.255    L17.736,54.309z"/></g></g></svg>